<svg width="235" height="44" viewBox="0 0 235 44" fill="none" xmlns="http://www.w3.org/2000/svg">
<path fill-rule="evenodd" clip-rule="evenodd" d="M41.7545 9.186C41.7545 10.1885 41.3895 11.1536 40.7148 12.0567C37.4247 8.88501 30.1536 6.68073 21.7124 6.68073C10.6659 6.68073 1.62324 10.4556 0.883914 15.2335C0.317645 12.2326 0 9.98074 0 9.186C0 4.11271 9.34708 0 20.8773 0C32.4075 0 41.7545 4.11271 41.7545 9.186ZM28.406 15.8015C29.9348 16.1304 31.4161 16.449 32.8085 16.7251C29.4266 17.7632 25.3135 18.372 20.8773 18.372C16.9653 48.1233 11.8351 47.5339 7.6392 38.6835C8.98517 34.7083 10.5415 26.8689 12.3176 13.3615C17.0621 13.3615 23.0276 14.6446 28.406 15.8015Z" fill="#15CB9E"/>
<path d="M53.7785 14.2509V10.0815H73.4225V14.2509H66.0998V34H61.1012V14.2509H53.7785ZM82.1379 34.3504C80.2926 34.3504 78.7043 33.9766 77.3729 33.2292C76.0493 32.474 75.0293 31.4073 74.313 30.0292C73.5967 28.6433 73.2385 27.0043 73.2385 25.1123C73.2385 23.267 73.5967 21.6476 74.313 20.2539C75.0293 18.8602 76.0376 17.774 77.3379 16.9954C78.6459 16.2169 80.1797 15.8276 81.9394 15.8276C83.1228 15.8276 84.2245 16.0183 85.2445 16.3998C86.2723 16.7735 87.1676 17.338 87.9307 18.0933C88.7015 18.8485 89.301 19.7984 89.7292 20.9429C90.1574 22.0797 90.3716 23.4111 90.3716 24.9371V26.3036H75.224V23.2203H85.6883C85.6883 22.504 85.5326 21.8695 85.2211 21.3167C84.9097 20.7639 84.4776 20.3317 83.9248 20.0203C83.3798 19.7011 82.7452 19.5415 82.0211 19.5415C81.2659 19.5415 80.5963 19.7166 80.0123 20.067C79.4362 20.4096 78.9846 20.8729 78.6576 21.4568C78.3306 22.033 78.1632 22.6753 78.1554 23.3838V26.3153C78.1554 27.2029 78.3189 27.9698 78.6459 28.616C78.9807 29.2622 79.4517 29.7605 80.059 30.1109C80.6664 30.4613 81.3866 30.6365 82.2197 30.6365C82.7725 30.6365 83.2785 30.5586 83.7379 30.4029C84.1973 30.2472 84.5905 30.0136 84.9175 29.7021C85.2445 29.3907 85.4937 29.0092 85.6649 28.5576L90.2665 28.8613C90.0329 29.9669 89.554 30.9323 88.8299 31.7576C88.1136 32.5752 87.1871 33.2136 86.0504 33.673C84.9214 34.1246 83.6172 34.3504 82.1379 34.3504ZM98.5935 10.0815V34H93.6183V10.0815H98.5935ZM110.754 34.3504C108.909 34.3504 107.321 33.9766 105.989 33.2292C104.666 32.474 103.646 31.4073 102.929 30.0292C102.213 28.6433 101.855 27.0043 101.855 25.1123C101.855 23.267 102.213 21.6476 102.929 20.2539C103.646 18.8602 104.654 17.774 105.954 16.9954C107.262 16.2169 108.796 15.8276 110.556 15.8276C111.739 15.8276 112.841 16.0183 113.861 16.3998C114.889 16.7735 115.784 17.338 116.547 18.0933C117.318 18.8485 117.917 19.7984 118.346 20.9429C118.774 22.0797 118.988 23.4111 118.988 24.9371V26.3036H103.84V23.2203H114.305C114.305 22.504 114.149 21.8695 113.837 21.3167C113.526 20.7639 113.094 20.3317 112.541 20.0203C111.996 19.7011 111.362 19.5415 110.637 19.5415C109.882 19.5415 109.213 19.7166 108.629 20.067C108.053 20.4096 107.601 20.8729 107.274 21.4568C106.947 22.033 106.78 22.6753 106.772 23.3838V26.3153C106.772 27.2029 106.935 27.9698 107.262 28.616C107.597 29.2622 108.068 29.7605 108.675 30.1109C109.283 30.4613 110.003 30.6365 110.836 30.6365C111.389 30.6365 111.895 30.5586 112.354 30.4029C112.814 30.2472 113.207 30.0136 113.534 29.7021C113.861 29.3907 114.11 29.0092 114.281 28.5576L118.883 28.8613C118.649 29.9669 118.17 30.9323 117.446 31.7576C116.73 32.5752 115.803 33.2136 114.667 33.673C113.538 34.1246 112.234 34.3504 110.754 34.3504ZM124.979 10.0815L130.76 28.254H130.982L136.775 10.0815H142.381L134.136 34H127.619L119.362 10.0815H124.979ZM145.166 34V16.0611H150.142V34H145.166ZM147.666 13.7487C146.926 13.7487 146.291 13.5034 145.762 13.0129C145.24 12.5146 144.979 11.919 144.979 11.226C144.979 10.5409 145.24 9.95304 145.762 9.46253C146.291 8.96422 146.926 8.71507 147.666 8.71507C148.405 8.71507 149.036 8.96422 149.558 9.46253C150.087 9.95304 150.352 10.5409 150.352 11.226C150.352 11.919 150.087 12.5146 149.558 13.0129C149.036 13.5034 148.405 13.7487 147.666 13.7487ZM163.669 16.0611V19.7984H152.866V16.0611H163.669ZM155.318 11.7633H160.293V28.4875C160.293 28.9469 160.364 29.3051 160.504 29.562C160.644 29.8111 160.838 29.9863 161.088 30.0876C161.345 30.1888 161.64 30.2394 161.975 30.2394C162.209 30.2394 162.442 30.2199 162.676 30.181C162.91 30.1343 163.089 30.0992 163.213 30.0759L163.996 33.7781C163.747 33.856 163.396 33.9455 162.945 34.0467C162.493 34.1557 161.944 34.2219 161.298 34.2453C160.099 34.292 159.048 34.1324 158.145 33.7664C157.249 33.4005 156.552 32.8321 156.054 32.0613C155.556 31.2905 155.31 30.3172 155.318 29.1416V11.7633ZM172.025 34.3387C170.88 34.3387 169.86 34.1401 168.965 33.7431C168.07 33.3382 167.361 32.7426 166.839 31.9562C166.326 31.162 166.069 30.1732 166.069 28.9897C166.069 27.9931 166.252 27.1561 166.618 26.4788C166.984 25.8014 167.482 25.2564 168.112 24.8437C168.743 24.431 169.459 24.1196 170.261 23.9094C171.071 23.6992 171.92 23.5512 172.807 23.4656C173.851 23.3566 174.692 23.2554 175.33 23.1619C175.969 23.0607 176.432 22.9128 176.72 22.7181C177.008 22.5235 177.152 22.2354 177.152 21.8539V21.7838C177.152 21.0442 176.918 20.4719 176.451 20.067C175.992 19.6621 175.338 19.4597 174.489 19.4597C173.594 19.4597 172.881 19.6582 172.352 20.0553C171.823 20.4446 171.472 20.9351 171.301 21.5269L166.699 21.1532C166.933 20.0631 167.392 19.121 168.077 18.3268C168.763 17.5249 169.646 16.9098 170.729 16.4816C171.819 16.0456 173.08 15.8276 174.513 15.8276C175.509 15.8276 176.463 15.9443 177.374 16.1779C178.293 16.4115 179.106 16.7735 179.815 17.2641C180.531 17.7546 181.096 18.3852 181.508 19.1561C181.921 19.9191 182.127 20.8339 182.127 21.9006V34H177.409V31.5124H177.269C176.981 32.073 176.595 32.5674 176.113 32.9956C175.63 33.4161 175.05 33.747 174.372 33.9883C173.695 34.2219 172.913 34.3387 172.025 34.3387ZM173.45 30.9051C174.182 30.9051 174.828 30.761 175.388 30.473C175.949 30.1771 176.389 29.78 176.708 29.2817C177.027 28.7834 177.187 28.2189 177.187 27.5883V25.6846C177.031 25.7858 176.817 25.8792 176.545 25.9649C176.28 26.0427 175.98 26.1167 175.645 26.1868C175.311 26.2491 174.976 26.3075 174.641 26.362C174.306 26.4087 174.003 26.4515 173.73 26.4904C173.146 26.5761 172.636 26.7123 172.2 26.8992C171.764 27.0861 171.425 27.3391 171.184 27.6583C170.943 27.9698 170.822 28.3591 170.822 28.8262C170.822 29.5036 171.067 30.0214 171.558 30.3795C172.056 30.7299 172.687 30.9051 173.45 30.9051ZM190.962 10.0815V34H185.987V10.0815H190.962ZM194.948 34V16.0611H199.923V34H194.948ZM197.447 13.7487C196.707 13.7487 196.073 13.5034 195.543 13.0129C195.022 12.5146 194.761 11.919 194.761 11.226C194.761 10.5409 195.022 9.95304 195.543 9.46253C196.073 8.96422 196.707 8.71507 197.447 8.71507C198.187 8.71507 198.817 8.96422 199.339 9.46253C199.869 9.95304 200.133 10.5409 200.133 11.226C200.133 11.919 199.869 12.5146 199.339 13.0129C198.817 13.5034 198.187 13.7487 197.447 13.7487ZM213.45 16.0611V19.7984H202.647V16.0611H213.45ZM205.1 11.7633H210.075V28.4875C210.075 28.9469 210.145 29.3051 210.285 29.562C210.425 29.8111 210.62 29.9863 210.869 30.0876C211.126 30.1888 211.422 30.2394 211.757 30.2394C211.99 30.2394 212.224 30.2199 212.457 30.181C212.691 30.1343 212.87 30.0992 212.995 30.0759L213.777 33.7781C213.528 33.856 213.178 33.9455 212.726 34.0467C212.274 34.1557 211.726 34.2219 211.079 34.2453C209.88 34.292 208.829 34.1324 207.926 33.7664C207.031 33.4005 206.334 32.8321 205.835 32.0613C205.337 31.2905 205.092 30.3172 205.1 29.1416V11.7633ZM219.763 40.7271C219.132 40.7271 218.54 40.6765 217.987 40.5752C217.442 40.4818 216.991 40.3611 216.633 40.2132L217.754 36.4993C218.338 36.6784 218.863 36.7757 219.331 36.7913C219.805 36.8068 220.214 36.6978 220.557 36.4643C220.907 36.2307 221.191 35.8336 221.409 35.273L221.701 34.5139L215.266 16.0611H220.498L224.212 29.235H224.399L228.148 16.0611H233.415L226.443 35.9387C226.108 36.9042 225.653 37.7451 225.077 38.4614C224.508 39.1855 223.788 39.7422 222.916 40.1314C222.044 40.5285 220.993 40.7271 219.763 40.7271Z" fill="#15CB9E"/>
</svg>
